HIERARCHY
ROOT hip
{
  OFFSET 0 0 0
  CHANNELS 6 Xposition Yposition Zposition Zrotation Yrotation Xrotation
  JOINT abdomen
  {
    OFFSET 0 20.6881 -0.73152
    CHANNELS 3 Zrotation Xrotation Yrotation
    JOINT chest
    {
      OFFSET 0 11.7043 -0.48768
      CHANNELS 3 Zrotation Xrotation Yrotation
      JOINT neck
      {
        OFFSET 0 22.1894 -2.19456
        CHANNELS 3 Zrotation Xrotation Yrotation
        JOINT head
        {
          OFFSET -0.24384 7.07133 1.2192
          CHANNELS 3 Zrotation Xrotation Yrotation
          JOINT leftEye
          {
            OFFSET 4.14528 8.04674 8.04672
            CHANNELS 3 Zrotation Xrotation Yrotation
            End Site
            {
              OFFSET 1 0 0
            }
          }
          JOINT rightEye
          {
            OFFSET -3.6576 8.04674 8.04672
            CHANNELS 3 Zrotation Xrotation Yrotation
            End Site
            {
              OFFSET 1 0 0
            }
          }
        }
      }
      JOINT rCollar
      {
        OFFSET -2.68224 19.2634 -4.8768
        CHANNELS 3 Zrotation Xrotation Yrotation
        JOINT rShldr
        {
          OFFSET -8.77824 -1.95073 1.46304
          CHANNELS 3 Zrotation Xrotation Yrotation
          JOINT rForeArm
          {
            OFFSET -28.1742 -1.7115 0.48768
            CHANNELS 3 Zrotation Xrotation Yrotation
            JOINT rHand
            {
              OFFSET -22.5879 0.773209 7.07136
              CHANNELS 3 Zrotation Xrotation Yrotation
              JOINT rThumb1
              {
                OFFSET -1.2192 -0.487915 3.41376
                CHANNELS 3 Zrotation Xrotation Yrotation
                JOINT rThumb2
                {
                  OFFSET -3.37035 -0.52449 3.41376
                  CHANNELS 3 Zrotation Xrotation Yrotation
                  End Site
                  {
                    OFFSET -1.78271 -1.18214 1.43049
                  }
                }
              }
              JOINT rIndex1
              {
                OFFSET -7.75947 0.938293 5.60832
                CHANNELS 3 Zrotation Xrotation Yrotation
                JOINT rIndex2
                {
                  OFFSET -2.54057 -0.884171 1.56538
                  CHANNELS 3 Zrotation Xrotation Yrotation
                  End Site
                  {
                    OFFSET -1.62519 -0.234802 1.16502
                  }
                }
              }
              JOINT rMid1
              {
                OFFSET -8.24714 1.18213 3.41376
                CHANNELS 3 Zrotation Xrotation Yrotation
                JOINT rMid2
                {
                  OFFSET -3.10165 -0.590103 1.0647
                  CHANNELS 3 Zrotation Xrotation Yrotation
                  End Site
                  {
                    OFFSET -2.48547 -0.328903 0.83742
                  }
                }
              }
              JOINT rRing1
              {
                OFFSET -8.82822 0.546677 1.51678
                CHANNELS 3 Zrotation Xrotation Yrotation
                JOINT rRing2
                {
                  OFFSET -2.60934 -0.819778 -0.0198488
                  CHANNELS 3 Zrotation Xrotation Yrotation
                  End Site
                  {
                    OFFSET -2.33842 -0.294052 0.168128
                  }
                }
              }
              JOINT rPinky1
              {
                OFFSET -8.27202 -0.0477905 -0.4584
                CHANNELS 3 Zrotation Xrotation Yrotation
                JOINT rPinky2
                {
                  OFFSET -1.82734 -0.647385 -0.700984
                  CHANNELS 3 Zrotation Xrotation Yrotation
                  End Site
                  {
                    OFFSET -1.69225 -0.51767 -0.607171
                  }
                }
              }
            }
          }
        }
      }
      JOINT lCollar
      {
        OFFSET 2.68224 19.2634 -4.8768
        CHANNELS 3 Zrotation Xrotation Yrotation
        JOINT lShldr
        {
          OFFSET 8.77824 -1.95073 1.46304
          CHANNELS 3 Zrotation Xrotation Yrotation
          JOINT lForeArm
          {
            OFFSET 28.1742 -1.7115 0.48768
            CHANNELS 3 Zrotation Xrotation Yrotation
            JOINT lHand
            {
              OFFSET 22.5879 0.773209 7.07136
              CHANNELS 3 Zrotation Xrotation Yrotation
              JOINT lThumb1
              {
                OFFSET 1.2192 -0.487915 3.41376
                CHANNELS 3 Zrotation Xrotation Yrotation
                JOINT lThumb2
                {
                  OFFSET 3.37035 -0.52449 3.41376
                  CHANNELS 3 Zrotation Xrotation Yrotation
                  End Site
                  {
                    OFFSET 1.78271 -1.18214 1.43049
                  }
                }
              }
              JOINT lIndex1
              {
                OFFSET 7.75947 0.938293 5.60832
                CHANNELS 3 Zrotation Xrotation Yrotation
                JOINT lIndex2
                {
                  OFFSET 2.54057 -0.884171 1.56538
                  CHANNELS 3 Zrotation Xrotation Yrotation
                  End Site
                  {
                    OFFSET 1.62519 -0.234802 1.16502
                  }
                }
              }
              JOINT lMid1
              {
                OFFSET 8.24714 1.18213 3.41376
                CHANNELS 3 Zrotation Xrotation Yrotation
                JOINT lMid2
                {
                  OFFSET 3.10165 -0.590103 1.0647
                  CHANNELS 3 Zrotation Xrotation Yrotation
                  End Site
                  {
                    OFFSET 2.48547 -0.328903 0.83742
                  }
                }
              }
              JOINT lRing1
              {
                OFFSET 8.82822 0.546677 1.51678
                CHANNELS 3 Zrotation Xrotation Yrotation
                JOINT lRing2
                {
                  OFFSET 2.60934 -0.819778 -0.0198488
                  CHANNELS 3 Zrotation Xrotation Yrotation
                  End Site
                  {
                    OFFSET 2.33842 -0.294052 0.168128
                  }
                }
              }
              JOINT lPinky1
              {
                OFFSET 8.27202 -0.0477905 -0.4584
                CHANNELS 3 Zrotation Xrotation Yrotation
                JOINT lPinky2
                {
                  OFFSET 1.82734 -0.647385 -0.700984
                  CHANNELS 3 Zrotation Xrotation Yrotation
                  End Site
                  {
                    OFFSET 1.69225 -0.51767 -0.607171
                  }
                }
              }
            }
          }
        }
      }
    }
  }
  JOINT rButtock
  {
    OFFSET -8.77824 4.35084 1.2192
    CHANNELS 3 Zrotation Xrotation Yrotation
    JOINT rThigh
    {
      OFFSET 0 -1.70687 -2.19456
      CHANNELS 3 Zrotation Xrotation Yrotation
      JOINT rShin
      {
        OFFSET 0 -36.8199 0.73152
        CHANNELS 3 Zrotation Xrotation Yrotation
        JOINT rFoot
        {
          OFFSET 0.73152 -45.1104 -5.12064
          CHANNELS 3 Zrotation Xrotation Yrotation
          End Site
          {
            OFFSET -1.1221 -3.69964 12.103
          }
        }
      }
    }
  }
  JOINT lButtock
  {
    OFFSET 8.77824 4.35084 1.2192
    CHANNELS 3 Zrotation Xrotation Yrotation
    JOINT lThigh
    {
      OFFSET 0 -1.70687 -2.19456
      CHANNELS 3 Zrotation Xrotation Yrotation
      JOINT lShin
      {
        OFFSET 0 -36.8199 0.73152
        CHANNELS 3 Zrotation Xrotation Yrotation
        JOINT lFoot
        {
          OFFSET -0.73152 -45.1104 -5.12064
          CHANNELS 3 Zrotation Xrotation Yrotation
          End Site
          {
            OFFSET 1.1221 -3.69964 12.103
          }
        }
      }
    }
  }
}
MOTION
Frames:	4
Frame Time:	0.03333
2.4790409048356645 33.68763021299969 27.039978995813872 -16.703826904296875 -25.234298706054688 9.515819549560547 14.858185768127441 9.75564956665039 9.919807434082031 -1.2046332359313965 -7.732170104980469 3.3276026248931885 -3.2260398864746094 13.275083541870117 0.48850762844085693 6.298408508300781 -22.319372177124023 1.9639663696289062 0.31838274002075195 0.13391070067882538 0.2802404463291168 0.1130349189043045 0.26827535033226013 0.5011747479438782 -0.05334485322237015 -0.35869166254997253 -0.1659366935491562 72.0673828125 40.83734893798828 -10.13209342956543 -19.67841339111328 -12.212462425231934 37.63066864013672 -0.2760620713233948 15.111405372619629 2.547407388687134 0.2936268150806427 0.05924532562494278 -0.19315175712108612 -0.45742499828338623 -0.005080435425043106 0.04185060039162636 0.4639841616153717 0.5177783966064453 0.1987098753452301 7.533629894256592 6.235125541687012 0.5037121772766113 -0.07970289140939713 -0.017738815397024155 -0.25438955426216125 2.803342819213867 1.5258854627609253 -0.4977126121520996 -0.11006484925746918 0.9359883666038513 -0.3248370885848999 10.904815673828125 1.5322448015213013 0.3144019544124603 0.04575798660516739 -0.3729798495769501 0.3910873830318451 2.48475980758667 -0.3003058135509491 -0.0541984885931015 -0.3258918523788452 0.22563569247722626 0.3293730616569519 -70.86719512939453 26.5965576171875 -10.195941925048828 15.184711456298828 -8.352416038513184 -28.086584091186523 0.5019591450691223 6.858425617218018 -0.9294605255126953 0.2001841515302658 0.05518655106425285 -0.052602414041757584 -0.6928174495697021 -0.29877930879592896 0.6903911828994751 0.13304969668388367 -0.3105827271938324 -0.18246491253376007 -7.425764083862305 5.833978176116943 -0.867378294467926 0.23086467385292053 0.26777327060699463 -0.15433257818222046 -3.0421104431152344 1.3861336708068848 -0.5825004577636719 -0.1572733074426651 0.176049143075943 0.20557600259780884 -9.385465621948242 1.0865247249603271 -0.17851901054382324 -0.3314995765686035 -0.4783087372779846 0.16175486147403717 -1.7025340795516968 -0.3547564446926117 0.07921306788921356 -0.46102210879325867 -0.30876624584198 0.019427990540862083 -4.5897908210754395 7.465345859527588 -7.2916083335876465 -0.10912221670150757 38.01881408691406 1.343555212020874 -13.029129981994629 -20.356586456298828 -32.86145782470703 -0.5996001958847046 0.6652341485023499 -0.31686335802078247 71.6750259399414 -54.82072448730469 59.41297149658203 2.021942615509033 72.73255157470703 -1.8260996341705322 -0.4457401633262634 -0.41399213671684265 -4.425721168518066
2.3997062299135563 33.69904345910279 27.665402876247544 -16.6096248626709 -25.08529281616211 9.491040229797363 14.776314735412598 9.767614364624023 9.911398887634277 -1.1964777708053589 -7.717705249786377 3.3099710941314697 -3.269896984100342 13.30784797668457 0.4334615468978882 6.3023481369018555 -22.37187385559082 1.826011061668396 0.2960313856601715 0.14042901992797852 0.26888570189476013 0.1313796490430832 0.2765181064605713 0.4921465218067169 -0.04366026818752289 -0.3653268814086914 -0.14230655133724213 71.81510925292969 40.77055358886719 -9.800827026367188 -19.603609085083008 -12.111004829406738 37.503440856933594 -0.28366634249687195 15.199739456176758 2.5618977546691895 0.2824799716472626 0.03180115669965744 -0.1849459409713745 -0.4634332060813904 -0.008447316475212574 0.05099106207489967 0.4585014581680298 0.5178253650665283 0.191787451505661 7.523233413696289 6.217366695404053 0.49304863810539246 -0.05097544565796852 -0.013309008441865444 -0.2519163489341736 2.8161182403564453 1.5239859819412231 -0.48790332674980164 -0.08756434917449951 0.9467050433158875 -0.32123351097106934 10.900866508483887 1.5358160734176636 0.3096429705619812 0.05650721862912178 -0.356097936630249 0.3791797161102295 2.47171688079834 -0.3105386793613434 -0.032398972660303116 -0.3228967785835266 0.2269771546125412 0.31145384907722473 -70.82982635498047 26.630413055419922 -10.229395866394043 15.214118957519531 -8.390481948852539 -28.11387825012207 0.4899481236934662 6.793484687805176 -0.8966696262359619 0.20972877740859985 0.057121288031339645 -0.07678722590208054 -0.7044315934181213 -0.29559382796287537 0.6838037371635437 0.13657936453819275 -0.3181258738040924 -0.17901413142681122 -7.43375301361084 5.8318963050842285 -0.8749246597290039 0.24469932913780212 0.2701070010662079 -0.15076130628585815 -3.0414602756500244 1.3899075984954834 -0.5644967555999756 -0.14516325294971466 0.16859321296215057 0.18157583475112915 -9.392729759216309 1.1048611402511597 -0.1640421450138092 -0.3362460136413574 -0.45869675278663635 0.14654280245304108 -1.701866865158081 -0.36069852113723755 0.07672940194606781 -0.45734938979148865 -0.30405133962631226 0.029125509783625603 -4.596493721008301 7.3091206550598145 -7.256563186645508 -0.12468313425779343 38.16196823120117 1.3441849946975708 -12.995591163635254 -20.33454704284668 -32.73188400268555 -0.6013157367706299 0.6536026000976562 -0.313637912273407 71.42552947998047 -54.85994338989258 59.1743049621582 1.9824390411376953 72.77851104736328 -1.7898037433624268 -0.39653217792510986 -0.5400902628898621 -4.303813457489014
2.333200784686848 33.63911537932509 28.306661909941656 -16.630016326904297 -25.165782928466797 9.521159172058105 14.788579940795898 9.757043838500977 9.967308044433594 -1.2200331687927246 -7.683333873748779 3.29536771774292 -3.2549777030944824 13.309739112854004 0.5146716237068176 6.274565696716309 -22.38838768005371 1.9160854816436768 0.30310750007629395 0.13632354140281677 0.25893455743789673 0.14344821870326996 0.2673852741718292 0.4751351475715637 -0.016901157796382904 -0.3615890145301819 -0.12001390010118484 71.88821411132812 40.86470413208008 -9.974104881286621 -19.584522247314453 -12.051647186279297 37.45355224609375 -0.2891242206096649 15.102570533752441 2.5241951942443848 0.26413190364837646 0.0002574709360487759 -0.19091057777404785 -0.46829962730407715 -0.007724471390247345 0.053612224757671356 0.46436744928359985 0.5191370844841003 0.1685681790113449 7.533729076385498 6.208025932312012 0.49207738041877747 -0.03597043827176094 -0.009736157953739166 -0.2485021948814392 2.8175883293151855 1.523474931716919 -0.47442758083343506 -0.08478198945522308 0.9584969282150269 -0.3222014605998993 10.876855850219727 1.5360321998596191 0.298319935798645 0.05324584245681763 -0.36819013953208923 0.3572458326816559 2.475842237472534 -0.33222463726997375 -0.00309963570907712 -0.3256491422653198 0.23668931424617767 0.29057493805885315 -70.68474578857422 26.359621047973633 -10.377928733825684 15.1448392868042 -8.25518798828125 -27.921770095825195 0.4742453098297119 7.1729559898376465 -0.9540138840675354 0.22034354507923126 0.0501834899187088 -0.09902089834213257 -0.7074062824249268 -0.27755752205848694 0.694597601890564 0.1442633420228958 -0.3328879177570343 -0.1861567199230194 -7.426901340484619 5.844866752624512 -0.8778479695320129 0.2591353952884674 0.2603099048137665 -0.15178801119327545 -3.0463457107543945 1.383561134338379 -0.5482587814331055 -0.15479029715061188 0.16717438399791718 0.1659039556980133 -9.400192260742188 1.1197551488876343 -0.14398173987865448 -0.34247103333473206 -0.43563684821128845 0.13954372704029083 -1.7021409273147583 -0.3745509386062622 0.06202518567442894 -0.45660653710365295 -0.31053462624549866 0.021772827953100204 -4.602887153625488 7.370107650756836 -7.133996486663818 -0.12200082093477249 38.07252502441406 1.352098822593689 -13.011950492858887 -20.335721969604492 -32.755584716796875 -0.6045283079147339 0.6463963985443115 -0.31807929277420044 71.54524230957031 -54.88628387451172 59.29827880859375 1.8804621696472168 72.89300537109375 -1.6850484609603882 -0.40295618772506714 -0.5911552906036377 -4.318252086639404
2.267056485712504 33.56399354373871 28.9758874733575 -16.74149513244629 -25.370248794555664 9.585169792175293 14.842794418334961 9.730203628540039 10.052316665649414 -1.233401894569397 -7.666062355041504 3.291456699371338 -3.2085928916931152 13.291211128234863 0.676327645778656 6.255969524383545 -22.389978408813477 2.164691686630249 0.31336653232574463 0.12225006520748138 0.2782096564769745 0.14513708651065826 0.25248950719833374 0.4626399576663971 0.002694122726097703 -0.3560813367366791 -0.08712433278560638 72.10993194580078 41.02170944213867 -10.419443130493164 -19.630563735961914 -12.091741561889648 37.5429573059082 -0.2896144688129425 14.873441696166992 2.4654178619384766 0.23416578769683838 -0.026053860783576965 -0.21158771216869354 -0.46476009488105774 -0.006893444340676069 0.06663048267364502 0.4772472083568573 0.5100011825561523 0.14044953882694244 7.541721343994141 6.204482078552246 0.5064684152603149 -0.035912804305553436 -0.02205934002995491 -0.24401460587978363 2.797795057296753 1.5212925672531128 -0.47407615184783936 -0.08116766065359116 0.968032956123352 -0.3179011940956116 10.855477333068848 1.525232195854187 0.29373297095298767 0.03947153687477112 -0.3974541425704956 0.33649566769599915 2.479945421218872 -0.34428200125694275 0.025404373183846474 -0.322503000497818 0.2445065677165985 0.27110448479652405 -70.44709014892578 25.92873191833496 -10.593118667602539 15.02852725982666 -8.044081687927246 -27.640195846557617 0.46312105655670166 7.80344295501709 -1.0444490909576416 0.23034390807151794 0.0320766307413578 -0.0996590405702591 -0.70240718126297 -0.25387877225875854 0.7142861485481262 0.15684197843074799 -0.3585668206214905 -0.19716893136501312 -7.407742500305176 5.860424518585205 -0.8819003105163574 0.26491105556488037 0.2508311867713928 -0.14928147196769714 -3.0495212078094482 1.367374062538147 -0.5351609587669373 -0.186167374253273 0.1661098152399063 0.16826976835727692 -9.39615535736084 1.1277070045471191 -0.12710914015769958 -0.3337632119655609 -0.4152521789073944 0.15328334271907806 -1.7181620597839355 -0.3883071839809418 0.051053114235401154 -0.46070611476898193 -0.32056862115859985 0.012033644132316113 -4.689092636108398 7.5565104484558105 -7.021559238433838 -0.1307021677494049 37.86848449707031 1.3849971294403076 -13.021456718444824 -20.338319778442383 -32.820396423339844 -0.6080593466758728 0.630567729473114 -0.315908819437027 71.9566879272461 -54.848026275634766 59.727882385253906 1.7897136211395264 73.09236907958984 -1.5953056812286377 -0.4180982708930969 -0.6533998847007751 -4.376601219177246
